<svg xmlns="http://www.w3.org/2000/svg" viewBox="0 0 58 58"><g fill="#5e3118"><path d="M41.528 5.884L55 19.356l-.528.528H58v-14zM24.174 5.884H7a7 7 0 1 0 0 14h4.23l-.528-.528L24.174 5.884z"/></g><g fill="#77442b"><path d="M16.543 8.367a51.15 51.15 0 0 1-1.961.104 1 1 0 0 0 .035 1.999l.037-.001a53.084 53.084 0 0 0 2.037-.108 1 1 0 0 0-.148-1.994zM10.588 8.569c-.696.02-1.379.045-2.034.086a1 1 0 1 0 .123 1.996 57.082 57.082 0 0 1 1.966-.082c.552-.016.987-.475.973-1.027s-.492-.947-1.028-.973zM4.359 9.319c-.907.297-1.602.694-2.12 1.213a.999.999 0 1 0 1.414 1.414c.288-.287.734-.532 1.329-.727a1 1 0 0 0-.623-1.9zM50 8.884h-2a1 1 0 1 0 0 2h2a1 1 0 1 0 0-2zM56 8.884h-2a1 1 0 1 0 0 2h2a1 1 0 1 0 0-2z"/></g><path d="M55.556 19.884L35.8.156a.139.139 0 0 0-.196 0L15.849 19.884h39.707z" fill="#eaead6"/><path d="M15.876 19.884L32.851 2.909 30.098.156a.139.139 0 0 0-.196 0L10.147 19.884h5.729z" fill="#bfbda3"/><path d="M47.331 20.509l.309-.309L35.759 8.335a.08.08 0 0 0-.115 0L23.769 20.2l.309.309h23.253z" fill="#6d8c60"/><path d="M0 12.884v38.848a6.152 6.152 0 0 0 6.152 6.152H58v-38H7a7 7 0 0 1-7-7z" fill="#77442b"/><path d="M52 24.884h-2a1 1 0 1 1 0-2h2a1 1 0 1 1 0 2zm-6 0h-2a1 1 0 1 1 0-2h2a1 1 0 1 1 0 2zm-6 0h-2a1 1 0 1 1 0-2h2a1 1 0 1 1 0 2zm-6 0h-2a1 1 0 1 1 0-2h2a1 1 0 1 1 0 2zm-6 0h-2a1 1 0 1 1 0-2h2a1 1 0 1 1 0 2zm-6 0h-2a1 1 0 1 1 0-2h2a1 1 0 1 1 0 2zm-6 0h-2a1 1 0 1 1 0-2h2a1 1 0 1 1 0 2zm-6 0H8a1 1 0 1 1 0-2h2a1 1 0 1 1 0 2zm-5.909-.63a.99.99 0 0 1-.415-.091 8.008 8.008 0 0 1-1.914-1.231 1.002 1.002 0 0 1 1.31-1.513c.433.376.916.687 1.436.925a1 1 0 0 1-.417 1.91zM52 54.884h-2a1 1 0 1 1 0-2h2a1 1 0 1 1 0 2zm-6 0h-2a1 1 0 1 1 0-2h2a1 1 0 1 1 0 2zm-6 0h-2a1 1 0 1 1 0-2h2a1 1 0 1 1 0 2zm-6 0h-2a1 1 0 1 1 0-2h2a1 1 0 1 1 0 2zm-6 0h-2a1 1 0 1 1 0-2h2a1 1 0 1 1 0 2zm-6 0h-2a1 1 0 1 1 0-2h2a1 1 0 1 1 0 2zm-6 0h-2a1 1 0 1 1 0-2h2a1 1 0 1 1 0 2zm-6 0H8a1 1 0 1 1 0-2h2a1 1 0 1 1 0 2zm-5.909-.63a.99.99 0 0 1-.415-.091 8.008 8.008 0 0 1-1.914-1.231 1.002 1.002 0 0 1 1.31-1.513c.433.376.916.687 1.436.925a1 1 0 0 1-.417 1.91z" fill="#91553d"/><path d="M58 45.051H46a6 6 0 1 1 0-12h12v12z" fill="#6d3d25"/><path d="M58 43.884H46a6 6 0 1 1 0-12h12v12z" fill="#5e3118"/><circle cx="47" cy="37.884" r="3" fill="#e4c05c"/></svg>